<svg xmlns="http://www.w3.org/2000/svg" width="183.794" height="156.777" viewBox="0 0 183.794 156.777"><path d="M1249.766,11.3l-1.725,3.674,1.622-3.674Z" transform="translate(-1105.542 -10.01)"/><path d="M464.733,25.053v76.391c0,6.515,3.1,14.675,12.364,14.675,4.388,0,8.576.1,8.576.1v.979H422.812v-.979s4.188-.114,8.177-.1c8.68.025,12.175-6.295,12.975-12V16.73l-29.949,63.94h0l13.127,24.77h-1.387a40.166,40.166,0,0,0-7.82-4.907c-4.673-2.253-16.429-2.841-16.429-2.841s-4.7-8.042-8.289-14.88l-2.92-5.567a47.687,47.687,0,0,0,1.2-10.68q0-3.692-.27-7.021a48.728,48.728,0,0,0-6.313-23.706,50.212,50.212,0,0,0-8.759-12.146,38.119,38.119,0,0,0-5.036-4.262,42.576,42.576,0,0,0-7.085-4.744c-1.189-.615-2.385-1.166-3.567-1.658q-.38-.159-.759-.309c-1.1-.432-2.226-.814-3.378-1.143-4.13-1.178-14.373-1.888-15.547-1.83v-.7l3.779.008,4.759.009,26.761.05,37.175,70.144,31.113-66.279L446.1,9.3h39.571v.979s-4.188.1-8.576.1C467.838,10.378,464.733,18.538,464.733,25.053Z" transform="translate(-301.879 -8.008)" fill="#f89b56"/><path d="M1263.17,11.087h-.02l.012-.027Z" transform="translate(-1118.926 -9.797)"/><path d="M89.624,58.556a47.692,47.692,0,0,1-1.2,10.68,48.577,48.577,0,0,1-2.128,6.893c-5.542,14.164-16.741,23.783-23.86,27.462-.7.363-1.361.7-1.983,1.012a15.236,15.236,0,0,1-1.481-1.875c.687-.485,1.371-1.008,2.069-1.574C68.705,94.945,72.3,88.82,72.3,59.637c0-4.194-.024-7.922-.071-11.244-.271-18.98-1.356-24.769-3.688-29.228A23.084,23.084,0,0,0,60.767,9.116a26.442,26.442,0,0,0-5.143-3.208c-.422-.206-.854-.4-1.291-.591a38.442,38.442,0,0,0-4.364-1.57A36.828,36.828,0,0,0,38.239,1.915c-1.235,0-2.426.026-3.583.084-8.3.422-14.9,2.588-24.789,9.721a20.348,20.348,0,0,0-8.8,16.293H.086L0,0H1.07A10.378,10.378,0,0,0,5.339,3.488,19.365,19.365,0,0,0,11.984,4.68a23.179,23.179,0,0,0,5.785-.647h0c5.341-1.09,12.58-3.12,20.469-3.12,1.606,0,3.046.032,4.451.128q.188.012.377.027a41.205,41.205,0,0,1,6.9,1.141c1.331.328,2.806.735,4.364,1.24q.637.206,1.291.435c.725.253,1.465.529,2.212.827q.378.151.759.309c1.182.492,2.378,1.042,3.567,1.658a42.571,42.571,0,0,1,7.085,4.744,38.115,38.115,0,0,1,5.036,4.262A50.212,50.212,0,0,1,83.041,27.83a48.729,48.729,0,0,1,6.313,23.706Q89.618,54.868,89.624,58.556Z" fill="#e52c55"/><path d="M62.521,742.767c-.972.486-1.857.914-2.687,1.291a30.009,30.009,0,0,1-7.793,2.462c-1.529.268-3.416.5-5.338.674-2.254.2-4.555.324-6.376.326h-.016c-7.763,0-14.634-1.966-19.946-3.066a23.887,23.887,0,0,0-6.043-.7,19.319,19.319,0,0,0-6.643,1.19,10.384,10.384,0,0,0-4.27,3.489H2.34l.087-28.012H3.41a20.354,20.354,0,0,0,8.8,16.292c11.266,8.126,18,9.805,28.1,9.805h.038l.287,0a52.516,52.516,0,0,0,8.582-.9c1.053-.2,2.014-.406,2.824-.615a26.877,26.877,0,0,0,6.638-2.6,27.276,27.276,0,0,0,2.36-1.5A15.218,15.218,0,0,0,62.521,742.767Z" transform="translate(-2.073 -638.165)" fill="#e62c54"/><path d="M375.02,149.6v1H335.05v-1h.022l.287,0c12.976-.177,15.769-11.518,15.769-15.981V46.56c.437.19.869.386,1.291.591v86.462a20.488,20.488,0,0,0,3.343,10.358,15.244,15.244,0,0,0,1.481,1.875,11.294,11.294,0,0,0,8.521,3.751Z" transform="translate(-296.795 -41.244)" fill="#016699"/><g transform="translate(3.374 130.648)"><path d="M131.29,1145.5a2.917,2.917,0,0,0-1.189.539,13.5,13.5,0,0,0-1.839,1.633c-1.605,1.785-3.164,3.61-4.734,5.426a2.5,2.5,0,0,1-1.275,1.019,2.058,2.058,0,0,0-2.926-.3c-.247.142-.47.321-.715.465a5.651,5.651,0,0,1-.669.332c-.548.229-1.127.4-1.649.679-1.253.672-2.457,1.435-3.724,2.078a5.606,5.606,0,0,1-1.887.546c-.788.086-1.021-.3-.751-1.065a1.587,1.587,0,0,1,1.367-1.248,3.234,3.234,0,0,0,2.234-1.472,1.368,1.368,0,0,0,.024-1.675,1.194,1.194,0,0,0-1.562-.189,4.88,4.88,0,0,0-1.294.936,3.449,3.449,0,0,1-2.059,1.189,4.608,4.608,0,0,0-1.686.819c-.708.472-1.352,1.04-2.031,1.555-.4.306-.8.615-1.231.884a1.072,1.072,0,0,1-1.247.084.981.981,0,0,1-.322-1.2,7.809,7.809,0,0,1,.888-1.964c1.081-1.556,2.29-3.024,3.363-4.586.626-.912,1.273-1.543,2.461-1.162a1.207,1.207,0,0,0,.283.01c2.18.153,4.257-.5,6.373-.827a1.206,1.206,0,0,0,.356-.124.612.612,0,0,0,.377-.774.967.967,0,0,0-.572-.526,2.7,2.7,0,0,0-1.029.036c-1.279.207-2.548.475-3.832.646a14.332,14.332,0,0,1-1.911.015c-.075-.154-.126-.21-.126-.266,0-.391,0-.79-.464-.928a.857.857,0,0,0-.956.464,1.224,1.224,0,0,1-1.338.441c-1.941-.256-3.885-.5-5.833-.7a8.543,8.543,0,0,0-4.013.468,3.864,3.864,0,0,0-1.125.674.757.757,0,0,0-.042,1.106c.277.295.553.251,1.007-.02a4.273,4.273,0,0,1,1.433-.653,12.428,12.428,0,0,1,2.731-.125c1.289.094,2.569.325,3.852.5.4.053.788.119,1.322.2-.259.34-.412.569-.591.774-.539.62-1.077,1.242-1.634,1.846a61.121,61.121,0,0,1-7.487,6.965,6.755,6.755,0,0,1-1.3.773,1,1,0,0,1-1.331-.3,8.912,8.912,0,0,1,.547-.954c.547-.735,1.127-1.446,1.688-2.171a2.456,2.456,0,0,0,.524-.777,1.289,1.289,0,0,0-.092-.954.89.89,0,0,0-.83-.171,1.164,1.164,0,0,1-1.143-.144,2.115,2.115,0,0,0-2.175,0c-.438.241-.815.59-1.233.873a2.049,2.049,0,0,1-.731.393,4.03,4.03,0,0,1-3.189-.469,2.26,2.26,0,0,0-2.175-.2c-.236.084-.465.187-.72.289a2.461,2.461,0,0,0-2.85-.147,18.251,18.251,0,0,0-1.96,1.144c-.634.415-1.226.892-1.85,1.323a3.777,3.777,0,0,1-.685.266c.152-.353.232-.551.322-.745a11.1,11.1,0,0,0,.6-1.287c.248-.781-.265-1.315-1.072-1.159-.24.047-.472.133-.668.191-1.426-1.127-2.185-1.144-3.6-.092-.353.262-.657.592-1,.866a3.632,3.632,0,0,1-.708.435c-.453.214-.932.378-1.378.6-1.157.581-2.3,1.194-3.456,1.775a1.431,1.431,0,0,1-1.514.07c-.027-1.175.269-1.539,1.321-1.638.158-.015.317,0,.473-.023a2.855,2.855,0,0,0,2.01-1.294,1.551,1.551,0,0,0-.1-1.857,1.461,1.461,0,0,0-1.745-.284,3.108,3.108,0,0,0-.923.65c-.645.692-1.242,1.427-1.861,2.144a3.712,3.712,0,0,1-.63.687c-.731.5-1.487.959-2.244,1.416a3.863,3.863,0,0,1-.859.394c-.813.249-1.342-.047-1.4-.884a4.249,4.249,0,0,1,.209-1.758,13.126,13.126,0,0,1,1.224-2.451c.918-1.438,1.957-2.8,2.868-4.239a1.553,1.553,0,0,1,1.892-.778,13.5,13.5,0,0,0,5.636-.323.714.714,0,0,0,.426-.18c.151-.216.348-.5.308-.719s-.316-.439-.543-.553a1.2,1.2,0,0,0-.649,0c-.687.105-1.367.261-2.056.339a7.171,7.171,0,0,1-3.092-.154c.076-.212.122-.328.16-.446.2-.625.132-.969-.234-1.168s-.732-.081-1.161.369a.693.693,0,0,0-.122.145c-.427.821-1.118.859-1.938.755a35.877,35.877,0,0,0-4.058-.339,11.082,11.082,0,0,0-2.7.376,2.438,2.438,0,0,0-1.048.756.656.656,0,0,0,.035.946.623.623,0,0,0,.937.037,3.222,3.222,0,0,1,2.658-.711c1.166.048,2.329.193,3.49.314a3.279,3.279,0,0,1,.662.239c-.377.473-.683.868-1,1.253a77.747,77.747,0,0,1-6.015,6.949c-.731.7-1.511,1.342-2.295,1.977a1,1,0,0,1-1.132.277c.071-.319.128-.644.216-.961a14.845,14.845,0,0,0,.43-1.45c.167-.968-.312-1.585-1.281-1.531a10.343,10.343,0,0,0-2.1.477,5.667,5.667,0,0,0-.853.4,2.011,2.011,0,0,0-2.5-.673,10.443,10.443,0,0,0-1.508.557c-1.022.5-2.018,1.049-3.028,1.572-.869.451-1.738.9-2.618,1.333a5.8,5.8,0,0,1-.925.249,4.55,4.55,0,0,1,.357-.755c.428-.547.876-1.078,1.327-1.606.2-.24.452-.445.647-.691a.824.824,0,0,0,.095-1.119c-.283-.312-.739-.3-1.2.047a4.082,4.082,0,0,0-.484.453,15.007,15.007,0,0,1-6.184,3.919,1.813,1.813,0,0,0-.691.288.93.93,0,0,0-.3.707.835.835,0,0,0,1.217.412c.939-.374,1.868-.769,2.8-1.154.222-.091.448-.17.663-.251.7,1.351,1.31,1.6,2.722,1.143a6.469,6.469,0,0,0,.963-.4c.9-.461,1.785-.952,2.684-1.412,1.069-.547,2.139-1.089,3.226-1.6a6.385,6.385,0,0,1,1.168-.28,5.476,5.476,0,0,1-1.24,1.978,3.017,3.017,0,0,0-.6.94.933.933,0,0,0,.242.818,1.045,1.045,0,0,0,.856.006c.243-.093.425-.364.614-.573.425-.468.82-.964,1.261-1.416a6.18,6.18,0,0,1,2.378-1.68,3.131,3.131,0,0,1,.663-.061c-.186.588-.369,1.059-.481,1.547a1.845,1.845,0,0,0,2.765,2.184,7.636,7.636,0,0,0,1.406-.959c.924-.814,1.8-1.68,2.7-2.518a6.332,6.332,0,0,1,.557-.4c-.025.473-.069.816-.054,1.158a4.854,4.854,0,0,0,.14,1.027,2.193,2.193,0,0,0,2.5,1.828,6.716,6.716,0,0,0,1.877-.572,11.03,11.03,0,0,0,1.33-.764c.2.231.355.424.526.6a2.5,2.5,0,0,0,2.721.5c1.165-.566,2.316-1.161,3.473-1.742.247-.123.5-.239.75-.359a2.4,2.4,0,0,1,.206.265c.5.941.913,1.157,1.9.832a14.3,14.3,0,0,0,1.8-.826c.267-.13.516-.3.943-.552a2.026,2.026,0,0,1-1.23,1.538c-4.013,1.481-6.6,4.546-8.792,8.023a3.443,3.443,0,0,0-.432,1.144,1.207,1.207,0,0,0,1.32,1.6,5.006,5.006,0,0,0,1.8-.486,4.868,4.868,0,0,0,1.436-1.065c1.052-1.132,2.1-2.279,3.042-3.5,1-1.3,1.9-2.681,2.822-4.041a1.985,1.985,0,0,1,1.073-.871,11.442,11.442,0,0,0,3.39-1.862c.684-.507,1.4-.978,2.12-1.427a5.94,5.94,0,0,1,1-.4l.134.168c-.132.27-.248.549-.4.808-.259.434-.569.838-.807,1.282a.8.8,0,0,0,.176,1.1.814.814,0,0,0,1.1-.233c.252-.28.436-.62.678-.911.5-.607,1-1.219,1.547-1.787.308-.321.749-.609,1.19-.324a5.982,5.982,0,0,0,2.923.911c-.105.358-.2.618-.256.886a1.461,1.461,0,0,0,.327,1.579,1.527,1.527,0,0,0,1.62.122c.409-.161.792-.385,1.265-.619a2.113,2.113,0,0,1,.144.323,2.084,2.084,0,0,0,2.16,1.838,3.3,3.3,0,0,0,2.3-.729c1.36-1.079,2.68-2.207,4.019-3.311.178-.148.375-.272.654-.473,0,.517-.014.892,0,1.264a2.205,2.205,0,0,0,2.237,2.224,3.323,3.323,0,0,0,2.194-.759c.754-.576,1.484-1.181,2.238-1.756.316-.242.666-.441,1.144-.752-.051.426-.08.666-.108.9a1.992,1.992,0,0,0,1.748,2.383,4.486,4.486,0,0,0,2.679-.411c.829-.386,1.623-.851,2.433-1.277.237-.124.482-.236.74-.362.4,1.639,1.323,2.071,2.729,1.318a11.212,11.212,0,0,0,1.161-.814c.243-.175.484-.354.726-.531a3.5,3.5,0,0,1-.134.967,9.853,9.853,0,0,0-.2,1.959,2.914,2.914,0,0,0,.5,1.3.907.907,0,0,0,.725.285.6.6,0,0,0,.514-.69,7.036,7.036,0,0,0-.14-.738,2.759,2.759,0,0,1-.089-1.018,8.7,8.7,0,0,1,3.237-5.084c.95-.682,1.96-1.292,2.843-2.053,1.41-1.214,2.752-2.509,4.092-3.8a2.4,2.4,0,0,0,.846-1.746,1.121,1.121,0,0,0-1.4-1.233ZM71.318,1156.37a3.857,3.857,0,0,1,1.917-1.891c.2-.093.492.026.741.047l.027.3a7.836,7.836,0,0,1-2.687,1.546Zm-5.734,10.859c.376-1.724,4.437-6.114,6.088-6.583C70.655,1163.11,67.037,1167.021,65.584,1167.23Zm24.145-9.963c.867-1.7,2.221-2.813,3.154-2.656A9.466,9.466,0,0,1,89.729,1157.267Zm28.225-.129a5.773,5.773,0,0,1,2.867-2.437A7.466,7.466,0,0,1,117.954,1157.138Z" transform="translate(-29.55 -1144.249)" fill="#016699"/><path d="M110.721,1206.619a.628.628,0,0,1-.589-.746.713.713,0,0,1,.73-.654.583.583,0,0,1,.7.609C111.547,1206.343,111.182,1206.549,110.721,1206.619Z" transform="translate(-100.929 -1198.255)" fill="#069"/><path d="M882.354,1168.23c.552.014-4.27,4.582-4.682,4.572C877.234,1172.791,881.8,1168.216,882.354,1168.23Z" transform="translate(-780.809 -1165.492)" fill="#fff"/><g transform="translate(113.598 0.055)"><path d="M1087.717,1153.767a1.034,1.034,0,0,0-.772-.112c-.194.034-.361.239-.533.375-.795.624-1.571,1.274-2.385,1.874-1.833,1.35-4.016,1.777-6.166,2.281-.023.005-.055-.028-.14-.073a4.32,4.32,0,0,1,.3-.537c.463-.6.951-1.182,1.411-1.784.577-.757.648-1.321.243-1.69-.359-.327-.738-.251-1.52.312s-1.581,1.157-2.38,1.723c-.242.171-.515.3-.773.444a4.968,4.968,0,0,1,.567-1.118.812.812,0,0,0-.125-1.047.77.77,0,0,0-.968-.065c-.276.153-.538.332-.8.507-1,.668-1.966,1.386-3,1.99a6.835,6.835,0,0,1-2.013.772c-.681.141-1.03-.289-.844-.969a4.631,4.631,0,0,1,.652-1.46c1.38-1.925,2.808-3.816,4.214-5.724a.862.862,0,0,1,.9-.392c.249.04.505.034.753.078a18.832,18.832,0,0,0,8.25-.568,1.768,1.768,0,0,0,.768-.335,1.049,1.049,0,0,0,.295-.732.594.594,0,0,0-.68-.524,4.36,4.36,0,0,0-.836.138,19.663,19.663,0,0,1-6.287.686c-.487-.038-.97-.123-1.58-.2.354-.533.636-.909.865-1.316a.764.764,0,0,0-.138-1.034.742.742,0,0,0-1.035.066,11.776,11.776,0,0,0-.917.956c-1.269,1.421-.791,1.141-2.546,1.21a8.317,8.317,0,0,0-4.255,1.129,2.3,2.3,0,0,0-.781.783.839.839,0,0,0,.151.749c.114.134.463.137.683.09.2-.042.36-.245.55-.355a6.615,6.615,0,0,1,3.625-.91,6.341,6.341,0,0,1-.47.613c-1.711,1.687-3.4,3.4-5.153,5.034a30.717,30.717,0,0,1-2.906,2.272,9.189,9.189,0,0,1-1.433.677,2.952,2.952,0,0,1,.669-1.594,3.025,3.025,0,0,0,.507-.788,1.076,1.076,0,0,0-.154-.844.867.867,0,0,0-.765-.084,5.375,5.375,0,0,0-.963.594c-1.146.729-2.285,1.47-3.442,2.178a5.491,5.491,0,0,1-1.208.543c-.858.268-1.236-.042-1.1-.916a3.516,3.516,0,0,1,1.095-2.14c1.779-1.659,3.509-3.371,5.237-5.082a12.131,12.131,0,0,0,1.491-1.713,3.74,3.74,0,0,0,.64-1.543c.162-1.191-.706-1.8-1.791-1.26a6.358,6.358,0,0,0-1.532,1.095,25.875,25.875,0,0,0-5.035,6.493,8.793,8.793,0,0,1-2.947,3.244,16.107,16.107,0,0,1-1.584,1.039,22,22,0,0,1-2.174.919.571.571,0,0,1-.8-.213,4.55,4.55,0,0,1,.838-1.612,4.657,4.657,0,0,0,.564-.978.925.925,0,0,0-.167-.758.738.738,0,0,0-.683-.089,7.742,7.742,0,0,0-1.282.793c-1.4,1.027-2.785,2.075-4.183,3.105a4.621,4.621,0,0,1-.746.325c.263-.53.434-.859.588-1.2a6.734,6.734,0,0,0,.438-1.047c.212-.8-.2-1.314-1.021-1.238a1.058,1.058,0,0,1-.848-.275,1.8,1.8,0,0,0-2.126-.155,5.667,5.667,0,0,0-.925.655c-.729.6-1.425,1.239-2.17,1.817-1.272.99-2.556,1.964-3.863,2.907a6.879,6.879,0,0,1-1.572.86,1.281,1.281,0,0,1-.971-.1c-.368-.213-.2-.629-.069-.944a4.774,4.774,0,0,1,.614-1.17c.778-.95,1.6-1.86,2.42-2.778.145-.163.347-.277.494-.441a.792.792,0,0,0,.126-1.04.745.745,0,0,0-.932-.242c-.208.066-.407.16-.619.244a2.972,2.972,0,0,0-3.764.417,10.141,10.141,0,0,0-1.828,2.028,3.265,3.265,0,0,0-.489,1.683,1.263,1.263,0,0,0,1.5,1.3c.24-.018.478-.05.756-.081,0,.2,0,.316,0,.438a2.058,2.058,0,0,0,2.088,2.289,3.361,3.361,0,0,0,2.155-.59c1.048-.7,2.068-1.451,3.1-2.179.248-.175.5-.345.741-.51.8.949,1.283,1.065,2.265.521.523-.29.995-.668,1.5-1,.159-.1.34-.173.633-.32a3.984,3.984,0,0,1-1.934,2.419,10.893,10.893,0,0,0-1.589,1.029,13.074,13.074,0,0,0-4.18,4.945,5.947,5.947,0,0,0-.573,1.792,1.3,1.3,0,0,0,1.7,1.522,4.307,4.307,0,0,0,1.552-.843,6.278,6.278,0,0,0,1.24-1.425q1.85-2.864,3.619-5.782a3.152,3.152,0,0,1,1.1-1.126c1.406-.847,2.782-1.743,4.173-2.618.227-.143.465-.271.7-.408.721,1.522,1.378,1.827,2.989,1.423a10.916,10.916,0,0,0,3.323-1.582c.307-.2.621-.394.983-.623.073.221.119.331.146.448.4,1.661,1.387,2.286,3.006,1.754a21.2,21.2,0,0,0,2.562-1.21c.273-.133.535-.288.835-.451.092.186.149.294.2.4a1.542,1.542,0,0,0,2.039,1.024,5.29,5.29,0,0,0,1.557-.67c1.041-.71,2.026-1.5,3.033-2.263.229-.172.451-.353.834-.653-.123.643-.236,1.038-.268,1.44a2.069,2.069,0,0,0,2.284,2.461,5.278,5.278,0,0,0,2.517-.74c.294-.153.592-.3.877-.448.683,1.085,1.16,1.246,2.267.83.339-.128.672-.271,1.085-.438a1.549,1.549,0,0,1-1.112,1.193,17.507,17.507,0,0,0-7.741,6.2,12.893,12.893,0,0,0-1.373,2.576,2.611,2.611,0,0,0-.146,1.3,1.254,1.254,0,0,0,1.722,1.1,3.606,3.606,0,0,0,1.225-.689,19.329,19.329,0,0,0,2.233-2.182q2.586-3.146,5.041-6.4a3.251,3.251,0,0,1,1.784-1.3c1.066-.293,2.108-.689,3.185-.922a15.691,15.691,0,0,0,7.22-3.977,1.853,1.853,0,0,0,.56-.737.869.869,0,0,0-.172-.754Zm-60.294,3.268c-.031.029-.064.055-.1.082a6.789,6.789,0,0,1-.564.442,5.543,5.543,0,0,1-.609.383,1.485,1.485,0,0,1,.014-.2,1.731,1.731,0,0,1,.078-.314c.015-.041.03-.082.048-.125a3.853,3.853,0,0,1,1.827-1.811c.042-.02.086-.039.129-.057.086-.036.172-.067.258-.094.044-.012.086-.025.129-.035a1.951,1.951,0,0,1,.5-.061h0c-.569.6-1.1,1.23-1.716,1.783Zm8.581,6.9c-.107.223-.239.464-.388.714l-.114.188c-.118.191-.243.385-.376.579s-.269.388-.41.578c-.067.091-.135.181-.2.268-.123.159-.245.313-.367.46-.048.057-.095.114-.143.169a4.793,4.793,0,0,1-1.343,1.21h0a2.018,2.018,0,0,1,.05-.277,3.9,3.9,0,0,1,.187-.559c.055-.131.115-.267.185-.406a9.4,9.4,0,0,1,.635-1.068c.2-.3.428-.6.663-.88.094-.113.19-.224.287-.332l.146-.16a6.4,6.4,0,0,1,1.468-1.217h0a2.2,2.2,0,0,1-.068.232c-.008.025-.017.049-.027.075-.049.132-.111.274-.184.426Zm3.378-8.158a15.837,15.837,0,0,1-2.427,1.97h0c.634-1.5,1.518-2.245,2.427-1.97Zm29.536,11.092c-.234.248-.465.483-.685.7a8.178,8.178,0,0,1-1.595,1.331h0c.05-1.276,2.374-4.189,4.312-5.721.117-.091.23-.178.344-.259.144-.1.285-.2.422-.282s.248-.146.365-.2l.012-.007a2.763,2.763,0,0,1,.381-.156,6.569,6.569,0,0,1-.872,1.428c-.044.061-.09.122-.137.184a37.025,37.025,0,0,1-2.544,2.985Z" transform="translate(-1024.475 -1144.734)" fill="#016699"/><path d="M1352.712,1207.478a.628.628,0,0,1-.589-.745.714.714,0,0,1,.73-.654.583.583,0,0,1,.7.61C1353.537,1207.2,1353.172,1207.408,1352.712,1207.478Z" transform="translate(-1314.71 -1199.071)" fill="#069"/><path d="M1231.252,1207.478a.628.628,0,0,1-.59-.745.715.715,0,0,1,.73-.654.583.583,0,0,1,.7.61C1232.077,1207.2,1231.712,1207.408,1231.252,1207.478Z" transform="translate(-1207.118 -1199.071)" fill="#069"/><path d="M1308.371,1159.139c.552-.028-3.924,4.881-4.335,4.9C1303.6,1164.062,1307.821,1159.167,1308.371,1159.139Z" transform="translate(-1272.088 -1157.494)" fill="#fff"/></g></g></svg>