<svg xmlns="http://www.w3.org/2000/svg" width="42.487" height="30.599" viewBox="0 0 42.487 30.599"><g transform="translate(-901.72 -2450.608)"><path d="M5.68.192A4.716,4.716,0,0,1,3.024-.536a4.742,4.742,0,0,1-1.7-2.032A7.187,7.187,0,0,1,.72-5.6a7.2,7.2,0,0,1,.6-3.024,4.734,4.734,0,0,1,1.7-2.04,4.716,4.716,0,0,1,2.656-.728,4.716,4.716,0,0,1,2.656.728,4.734,4.734,0,0,1,1.7,2.04,7.2,7.2,0,0,1,.6,3.024,7.187,7.187,0,0,1-.6,3.032,4.742,4.742,0,0,1-1.7,2.032A4.716,4.716,0,0,1,5.68.192Zm0-1.84A2.478,2.478,0,0,0,7.744-2.7a4.693,4.693,0,0,0,.8-2.9,4.693,4.693,0,0,0-.8-2.9A2.478,2.478,0,0,0,5.68-9.552,2.471,2.471,0,0,0,3.608-8.5a4.728,4.728,0,0,0-.792,2.9,4.728,4.728,0,0,0,.792,2.9A2.471,2.471,0,0,0,5.68-1.648ZM12.1,0V-1.488q1.024-.848,1.992-1.68a21.594,21.594,0,0,0,1.728-1.648,9.234,9.234,0,0,0,1.216-1.592,2.979,2.979,0,0,0,.456-1.512,2.043,2.043,0,0,0-.376-1.216,1.417,1.417,0,0,0-1.24-.528,1.579,1.579,0,0,0-1.328.576A2.2,2.2,0,0,0,14.1-7.7H12.112a4.034,4.034,0,0,1,.544-2.056,3.22,3.22,0,0,1,1.36-1.232,4.336,4.336,0,0,1,1.9-.408,3.637,3.637,0,0,1,2.664.936,3.25,3.25,0,0,1,.952,2.424,4.121,4.121,0,0,1-.424,1.808A8.065,8.065,0,0,1,18-4.528,14.9,14.9,0,0,1,16.512-3q-.8.712-1.552,1.32h4.848V0Z" transform="translate(901 2462)" fill="#e52c55"/><path d="M.707,24.707-.707,23.293l24-24L24.707.707Z" transform="translate(919.5 2456.5)" fill="#e52c55"/></g></svg>