<svg xmlns="http://www.w3.org/2000/svg" width="42.487" height="30.599" viewBox="0 0 42.487 30.599"><g transform="translate(-541.72 -2450.608)"><path d="M5.68.192A4.716,4.716,0,0,1,3.024-.536a4.742,4.742,0,0,1-1.7-2.032A7.187,7.187,0,0,1,.72-5.6a7.2,7.2,0,0,1,.6-3.024,4.734,4.734,0,0,1,1.7-2.04,4.716,4.716,0,0,1,2.656-.728,4.716,4.716,0,0,1,2.656.728,4.734,4.734,0,0,1,1.7,2.04,7.2,7.2,0,0,1,.6,3.024,7.187,7.187,0,0,1-.6,3.032,4.742,4.742,0,0,1-1.7,2.032A4.716,4.716,0,0,1,5.68.192Zm0-1.84A2.478,2.478,0,0,0,7.744-2.7a4.693,4.693,0,0,0,.8-2.9,4.693,4.693,0,0,0-.8-2.9A2.478,2.478,0,0,0,5.68-9.552,2.471,2.471,0,0,0,3.608-8.5a4.728,4.728,0,0,0-.792,2.9,4.728,4.728,0,0,0,.792,2.9A2.471,2.471,0,0,0,5.68-1.648ZM13.664,0V-8.864l-1.84.432V-10l2.7-1.2h1.264V0Z" transform="translate(541 2462)" fill="#e52c55"/><path d="M.707,24.707-.707,23.293l24-24L24.707.707Z" transform="translate(559.5 2456.5)" fill="#e52c55"/></g></svg>