<svg xmlns="http://www.w3.org/2000/svg" width="88.063" height="159.619" viewBox="0 0 88.063 159.619"><path d="M-7748.655-14486.263a82.325,82.325,0,0,1-56.4-22.249,83.223,83.223,0,0,1-10.077-11.307,82.836,82.836,0,0,1-7.886-13.024,81.891,81.891,0,0,1-8.041-30.04H-7743v76.429C-7744.875-14486.327-7746.778-14486.263-7748.655-14486.263Zm-.007-91.441a71.52,71.52,0,0,1-27.174-5.312,71.957,71.957,0,0,1-11.938-6.246,72.3,72.3,0,0,1-10.489-8.289,72.589,72.589,0,0,1-8.777-10.068,72.129,72.129,0,0,1-6.8-11.588,71.313,71.313,0,0,1-6.63-26.675H-7743v67.957C-7744.872-14577.778-7746.777-14577.7-7748.663-14577.7Z" transform="translate(7831.063 14645.882)" fill="#f89b56"/></svg>